<svg width="673" height="229" viewBox="0 0 673 229" fill="none" xmlns="http://www.w3.org/2000/svg">
<path d="M147.256 93H129.976L116.024 72.648H38.072L23.992 93H6.84L67.512 0.839996H86.456L147.256 93ZM76.088 15.688L46.904 57.672H107.32L77.88 15.688H76.088ZM271.465 33.096H256.617C256.617 31.2187 256.233 29.2987 255.465 27.336C254.697 25.288 253.502 23.4107 251.881 21.704C250.26 19.9973 248.254 18.5893 245.865 17.48C243.476 16.2853 240.66 15.688 237.417 15.688H177.257C174.953 15.688 172.777 16.0293 170.729 16.712C168.766 17.3093 167.017 18.248 165.481 19.528C163.945 20.7227 162.708 22.2587 161.769 24.136C160.916 25.928 160.489 28.0187 160.489 30.408C160.489 33.6507 161.897 36.1253 164.713 37.832C167.614 39.4533 172.094 40.264 178.153 40.264H242.409C246.505 40.264 250.302 40.7333 253.801 41.672C257.3 42.5253 260.372 43.9333 263.017 45.896C265.662 47.7733 267.71 50.248 269.161 53.32C270.697 56.392 271.465 60.0613 271.465 64.328C271.465 68.2533 270.697 71.9653 269.161 75.464C267.71 78.9627 265.662 82.0347 263.017 84.68C260.457 87.24 257.428 89.288 253.929 90.824C250.516 92.2747 246.804 93 242.793 93H175.849C171.412 93 167.358 92.0613 163.689 90.184C160.105 88.2213 156.99 85.704 154.345 82.632C151.7 79.56 149.652 76.104 148.201 72.264C146.75 68.424 146.025 64.584 146.025 60.744H161.001C161.001 62.4507 161.342 64.328 162.025 66.376C162.708 68.3387 163.774 70.216 165.225 72.008C166.761 73.7147 168.766 75.1653 171.241 76.36C173.716 77.4693 176.745 78.024 180.329 78.024H239.721C242.281 78.024 244.585 77.64 246.633 76.872C248.766 76.0187 250.558 74.9093 252.009 73.544C253.545 72.1787 254.74 70.6427 255.593 68.936C256.446 67.144 256.873 65.352 256.873 63.56C256.873 61.512 256.489 59.8907 255.721 58.696C254.953 57.416 253.844 56.4347 252.393 55.752C250.942 55.0693 249.15 54.6427 247.017 54.472C244.884 54.216 242.452 54.088 239.721 54.088H176.745C172.82 54.088 168.98 53.6187 165.225 52.68C161.556 51.7413 158.27 50.2907 155.369 48.328C152.553 46.28 150.292 43.72 148.585 40.648C146.878 37.576 146.025 33.864 146.025 29.512C146.025 25.5013 146.75 21.7893 148.201 18.376C149.737 14.8773 151.785 11.848 154.345 9.28799C156.99 6.64266 160.062 4.59466 163.561 3.144C167.06 1.608 170.772 0.839996 174.697 0.839996H241.641C246.078 0.839996 250.132 1.82133 253.801 3.784C257.47 5.66133 260.585 8.136 263.145 11.208C265.79 14.28 267.838 17.736 269.289 21.576C270.74 25.416 271.465 29.256 271.465 33.096ZM405.84 33.096H390.992C390.992 31.2187 390.608 29.2987 389.84 27.336C389.072 25.288 387.877 23.4107 386.256 21.704C384.635 19.9973 382.629 18.5893 380.24 17.48C377.851 16.2853 375.035 15.688 371.792 15.688H311.632C309.328 15.688 307.152 16.0293 305.104 16.712C303.141 17.3093 301.392 18.248 299.856 19.528C298.32 20.7227 297.083 22.2587 296.144 24.136C295.291 25.928 294.864 28.0187 294.864 30.408C294.864 33.6507 296.272 36.1253 299.088 37.832C301.989 39.4533 306.469 40.264 312.528 40.264H376.784C380.88 40.264 384.677 40.7333 388.176 41.672C391.675 42.5253 394.747 43.9333 397.392 45.896C400.037 47.7733 402.085 50.248 403.536 53.32C405.072 56.392 405.84 60.0613 405.84 64.328C405.84 68.2533 405.072 71.9653 403.536 75.464C402.085 78.9627 400.037 82.0347 397.392 84.68C394.832 87.24 391.803 89.288 388.304 90.824C384.891 92.2747 381.179 93 377.168 93H310.224C305.787 93 301.733 92.0613 298.064 90.184C294.48 88.2213 291.365 85.704 288.72 82.632C286.075 79.56 284.027 76.104 282.576 72.264C281.125 68.424 280.4 64.584 280.4 60.744H295.376C295.376 62.4507 295.717 64.328 296.4 66.376C297.083 68.3387 298.149 70.216 299.6 72.008C301.136 73.7147 303.141 75.1653 305.616 76.36C308.091 77.4693 311.12 78.024 314.704 78.024H374.096C376.656 78.024 378.96 77.64 381.008 76.872C383.141 76.0187 384.933 74.9093 386.384 73.544C387.92 72.1787 389.115 70.6427 389.968 68.936C390.821 67.144 391.248 65.352 391.248 63.56C391.248 61.512 390.864 59.8907 390.096 58.696C389.328 57.416 388.219 56.4347 386.768 55.752C385.317 55.0693 383.525 54.6427 381.392 54.472C379.259 54.216 376.827 54.088 374.096 54.088H311.12C307.195 54.088 303.355 53.6187 299.6 52.68C295.931 51.7413 292.645 50.2907 289.744 48.328C286.928 46.28 284.667 43.72 282.96 40.648C281.253 37.576 280.4 33.864 280.4 29.512C280.4 25.5013 281.125 21.7893 282.576 18.376C284.112 14.8773 286.16 11.848 288.72 9.28799C291.365 6.64266 294.437 4.59466 297.936 3.144C301.435 1.608 305.147 0.839996 309.072 0.839996H376.016C380.453 0.839996 384.507 1.82133 388.176 3.784C391.845 5.66133 394.96 8.136 397.52 11.208C400.165 14.28 402.213 17.736 403.664 21.576C405.115 25.416 405.84 29.256 405.84 33.096ZM417.4 93V0.839996H533.24V15.688H432.376V39.496H530.168V54.344H432.376V78.024H533.24V93H417.4ZM666.405 0.839996V15.688H612.133V93H597.285V15.688H543.525V0.839996H666.405Z" fill="white"/>
<path d="M138.02 143.288H122.476C122.476 141.323 122.074 139.313 121.27 137.258C120.466 135.114 119.215 133.149 117.518 131.362C115.821 129.575 113.721 128.101 111.22 126.94C108.719 125.689 105.771 125.064 102.376 125.064H39.396C36.984 125.064 34.706 125.421 32.562 126.136C30.5073 126.761 28.676 127.744 27.068 129.084C25.46 130.335 24.1647 131.943 23.182 133.908C22.2887 135.784 21.842 137.973 21.842 140.474C21.842 143.869 23.316 146.459 26.264 148.246C29.3013 149.943 33.9913 150.792 40.334 150.792H107.602C111.89 150.792 115.865 151.283 119.528 152.266C123.191 153.159 126.407 154.633 129.176 156.688C131.945 158.653 134.089 161.244 135.608 164.46C137.216 167.676 138.02 171.517 138.02 175.984C138.02 180.093 137.216 183.979 135.608 187.642C134.089 191.305 131.945 194.521 129.176 197.29C126.496 199.97 123.325 202.114 119.662 203.722C116.089 205.241 112.203 206 108.004 206H37.922C33.2767 206 29.0333 205.017 25.192 203.052C21.44 200.997 18.1793 198.362 15.41 195.146C12.6407 191.93 10.4967 188.312 8.978 184.292C7.45933 180.272 6.7 176.252 6.7 172.232H22.378C22.378 174.019 22.7353 175.984 23.45 178.128C24.1647 180.183 25.2813 182.148 26.8 184.024C28.408 185.811 30.5073 187.329 33.098 188.58C35.6887 189.741 38.86 190.322 42.612 190.322H104.788C107.468 190.322 109.88 189.92 112.024 189.116C114.257 188.223 116.133 187.061 117.652 185.632C119.26 184.203 120.511 182.595 121.404 180.808C122.297 178.932 122.744 177.056 122.744 175.18C122.744 173.036 122.342 171.339 121.538 170.088C120.734 168.748 119.573 167.721 118.054 167.006C116.535 166.291 114.659 165.845 112.426 165.666C110.193 165.398 107.647 165.264 104.788 165.264H38.86C34.7507 165.264 30.7307 164.773 26.8 163.79C22.9587 162.807 19.5193 161.289 16.482 159.234C13.534 157.09 11.1667 154.41 9.38 151.194C7.59333 147.978 6.7 144.092 6.7 139.536C6.7 135.337 7.45933 131.451 8.978 127.878C10.586 124.215 12.73 121.044 15.41 118.364C18.1793 115.595 21.3953 113.451 25.058 111.932C28.7207 110.324 32.6067 109.52 36.716 109.52H106.798C111.443 109.52 115.687 110.547 119.528 112.602C123.369 114.567 126.63 117.158 129.31 120.374C132.079 123.59 134.223 127.208 135.742 131.228C137.261 135.248 138.02 139.268 138.02 143.288ZM269.377 109.52V125.064H212.561V206H197.017V125.064H140.737V109.52H269.377ZM371.792 206H304.524C300.415 206 296.529 205.241 292.866 203.722C289.293 202.114 286.122 199.97 283.352 197.29C280.672 194.521 278.528 191.349 276.92 187.776C275.402 184.113 274.642 180.227 274.642 176.118V139.402C274.642 135.293 275.402 131.451 276.92 127.878C278.528 124.215 280.672 121.044 283.352 118.364C286.122 115.595 289.293 113.451 292.866 111.932C296.529 110.324 300.415 109.52 304.524 109.52H371.792C375.902 109.52 379.743 110.324 383.316 111.932C386.979 113.451 390.15 115.595 392.83 118.364C395.6 121.044 397.744 124.215 399.262 127.878C400.87 131.451 401.674 135.293 401.674 139.402V176.118C401.674 180.227 400.87 184.113 399.262 187.776C397.744 191.349 395.6 194.521 392.83 197.29C390.15 199.97 386.979 202.114 383.316 203.722C379.743 205.241 375.902 206 371.792 206ZM386.13 170.088V145.432C386.13 142.752 385.639 140.206 384.656 137.794C383.763 135.382 382.423 133.238 380.636 131.362C378.939 129.397 376.884 127.878 374.472 126.806C372.06 125.645 369.38 125.064 366.432 125.064H311.09C308.053 125.064 305.284 125.555 302.782 126.538C300.281 127.521 298.092 128.95 296.216 130.826C294.34 132.613 292.866 134.757 291.794 137.258C290.812 139.67 290.32 142.35 290.32 145.298V170.356C290.32 173.036 290.767 175.582 291.66 177.994C292.643 180.406 294.028 182.55 295.814 184.426C297.601 186.302 299.7 187.776 302.112 188.848C304.614 189.831 307.383 190.322 310.42 190.322H365.628C368.755 190.322 371.569 189.786 374.07 188.714C376.572 187.642 378.716 186.168 380.502 184.292C382.378 182.416 383.763 180.272 384.656 177.86C385.639 175.448 386.13 172.857 386.13 170.088ZM535.15 206H515.988L496.826 178.128H425.404V206H409.726V109.52H506.742C510.941 109.52 514.827 110.279 518.4 111.798C522.063 113.317 525.234 115.327 527.914 117.828C530.683 120.329 532.827 123.233 534.346 126.538C535.954 129.754 536.758 133.059 536.758 136.454V150.524C536.758 153.383 536.133 156.286 534.882 159.234C533.721 162.182 532.113 164.907 530.058 167.408C528.093 169.909 525.77 172.053 523.09 173.84C520.499 175.537 517.819 176.654 515.05 177.19L535.15 206ZM521.214 146.504V140.34C521.214 138.285 520.767 136.365 519.874 134.578C518.981 132.702 517.685 131.094 515.988 129.754C514.38 128.325 512.459 127.208 510.226 126.404C508.082 125.511 505.67 125.064 502.99 125.064H425.404V162.45H502.99C506.295 162.45 509.065 161.959 511.298 160.976C513.621 159.993 515.497 158.743 516.926 157.224C518.445 155.705 519.517 154.008 520.142 152.132C520.857 150.167 521.214 148.291 521.214 146.504ZM544.809 206V109.52H666.079V125.064H560.487V149.988H662.863V165.532H560.487V190.322H666.079V206H544.809Z" fill="white"/>
</svg>
