<svg width="847" height="224" viewBox="0 0 847 224" fill="none" xmlns="http://www.w3.org/2000/svg">
<path d="M99.072 93H6.4V0.839996H99.072C103.083 0.839996 106.795 1.608 110.208 3.144C113.707 4.59466 116.736 6.64266 119.296 9.28799C121.941 11.848 123.989 14.8773 125.44 18.376C126.976 21.7893 127.744 25.5013 127.744 29.512V64.328C127.744 68.2533 126.976 71.9653 125.44 75.464C123.989 78.9627 121.941 82.0347 119.296 84.68C116.736 87.24 113.707 89.288 110.208 90.824C106.795 92.2747 103.083 93 99.072 93ZM112.896 59.08V35.272C112.896 32.3707 112.384 29.7253 111.36 27.336C110.421 24.9467 109.056 22.8987 107.264 21.192C105.557 19.4853 103.552 18.1627 101.248 17.224C98.944 16.2 96.4267 15.688 93.696 15.688H21.376V78.024H93.44C96.1707 78.024 98.688 77.5973 100.992 76.744C103.381 75.8053 105.429 74.4827 107.136 72.776C108.928 71.0693 110.336 69.064 111.36 66.76C112.384 64.456 112.896 61.896 112.896 59.08ZM146.699 0.839996H161.675V93H146.699V0.839996ZM306.09 33.096H291.242C291.242 31.2187 290.858 29.2987 290.09 27.336C289.322 25.288 288.127 23.4107 286.506 21.704C284.885 19.9973 282.879 18.5893 280.49 17.48C278.101 16.2853 275.285 15.688 272.042 15.688H211.882C209.578 15.688 207.402 16.0293 205.354 16.712C203.391 17.3093 201.642 18.248 200.106 19.528C198.57 20.7227 197.333 22.2587 196.394 24.136C195.541 25.928 195.114 28.0187 195.114 30.408C195.114 33.6507 196.522 36.1253 199.338 37.832C202.239 39.4533 206.719 40.264 212.778 40.264H277.034C281.13 40.264 284.927 40.7333 288.426 41.672C291.925 42.5253 294.997 43.9333 297.642 45.896C300.287 47.7733 302.335 50.248 303.786 53.32C305.322 56.392 306.09 60.0613 306.09 64.328C306.09 68.2533 305.322 71.9653 303.786 75.464C302.335 78.9627 300.287 82.0347 297.642 84.68C295.082 87.24 292.053 89.288 288.554 90.824C285.141 92.2747 281.429 93 277.418 93H210.474C206.037 93 201.983 92.0613 198.314 90.184C194.73 88.2213 191.615 85.704 188.97 82.632C186.325 79.56 184.277 76.104 182.826 72.264C181.375 68.424 180.65 64.584 180.65 60.744H195.626C195.626 62.4507 195.967 64.328 196.65 66.376C197.333 68.3387 198.399 70.216 199.85 72.008C201.386 73.7147 203.391 75.1653 205.866 76.36C208.341 77.4693 211.37 78.024 214.954 78.024H274.346C276.906 78.024 279.21 77.64 281.258 76.872C283.391 76.0187 285.183 74.9093 286.634 73.544C288.17 72.1787 289.365 70.6427 290.218 68.936C291.071 67.144 291.498 65.352 291.498 63.56C291.498 61.512 291.114 59.8907 290.346 58.696C289.578 57.416 288.469 56.4347 287.018 55.752C285.567 55.0693 283.775 54.6427 281.642 54.472C279.509 54.216 277.077 54.088 274.346 54.088H211.37C207.445 54.088 203.605 53.6187 199.85 52.68C196.181 51.7413 192.895 50.2907 189.994 48.328C187.178 46.28 184.917 43.72 183.21 40.648C181.503 37.576 180.65 33.864 180.65 29.512C180.65 25.5013 181.375 21.7893 182.826 18.376C184.362 14.8773 186.41 11.848 188.97 9.28799C191.615 6.64266 194.687 4.59466 198.186 3.144C201.685 1.608 205.397 0.839996 209.322 0.839996H276.266C280.703 0.839996 284.757 1.82133 288.426 3.784C292.095 5.66133 295.21 8.136 297.77 11.208C300.415 14.28 302.463 17.736 303.914 21.576C305.365 25.416 306.09 29.256 306.09 33.096ZM440.465 35.656H425.617C425.617 32.9253 425.148 30.3653 424.209 27.976C423.27 25.5867 421.948 23.496 420.241 21.704C418.62 19.912 416.657 18.4613 414.353 17.352C412.049 16.2427 409.446 15.688 406.545 15.688H349.585C346.854 15.688 344.294 16.1573 341.905 17.096C339.516 18.0347 337.425 19.4 335.633 21.192C333.841 22.8987 332.433 24.9893 331.409 27.464C330.47 29.8533 330.001 32.6267 330.001 35.784V58.824C330.001 61.7253 330.47 64.3707 331.409 66.76C332.433 69.064 333.841 71.0693 335.633 72.776C337.425 74.4827 339.516 75.8053 341.905 76.744C344.38 77.5973 347.025 78.024 349.841 78.024H406.545C408.764 78.024 410.982 77.5547 413.201 76.616C415.505 75.592 417.553 74.2267 419.345 72.52C421.137 70.728 422.63 68.552 423.825 65.992C425.02 63.432 425.617 60.616 425.617 57.544H440.465V60.104C440.465 64.1147 439.74 68.0827 438.289 72.008C436.838 75.9333 434.79 79.4747 432.145 82.632C429.585 85.704 426.47 88.2213 422.801 90.184C419.132 92.0613 415.078 93 410.641 93H343.697C339.772 93 336.06 92.2747 332.561 90.824C329.062 89.288 325.99 87.24 323.345 84.68C320.785 82.0347 318.737 78.9627 317.201 75.464C315.75 71.9653 315.025 68.2533 315.025 64.328V29.512C315.025 25.5013 315.75 21.7893 317.201 18.376C318.737 14.8773 320.785 11.848 323.345 9.28799C325.99 6.64266 329.062 4.59466 332.561 3.144C336.06 1.608 339.772 0.839996 343.697 0.839996H410.641C415.078 0.839996 419.132 1.82133 422.801 3.784C426.47 5.66133 429.585 8.136 432.145 11.208C434.79 14.28 436.838 17.736 438.289 21.576C439.74 25.416 440.465 29.256 440.465 33.096V35.656ZM544.825 93H480.569C476.644 93 472.932 92.2747 469.433 90.824C466.02 89.288 462.99 87.24 460.345 84.68C457.785 82.0347 455.737 79.0053 454.201 75.592C452.75 72.0933 452.025 68.3813 452.025 64.456V29.384C452.025 25.4587 452.75 21.7893 454.201 18.376C455.737 14.8773 457.785 11.848 460.345 9.28799C462.99 6.64266 466.02 4.59466 469.433 3.144C472.932 1.608 476.644 0.839996 480.569 0.839996H544.825C548.75 0.839996 552.42 1.608 555.833 3.144C559.332 4.59466 562.361 6.64266 564.921 9.28799C567.566 11.848 569.614 14.8773 571.065 18.376C572.601 21.7893 573.369 25.4587 573.369 29.384V64.456C573.369 68.3813 572.601 72.0933 571.065 75.592C569.614 79.0053 567.566 82.0347 564.921 84.68C562.361 87.24 559.332 89.288 555.833 90.824C552.42 92.2747 548.75 93 544.825 93ZM558.521 58.696V35.144C558.521 32.584 558.052 30.152 557.113 27.848C556.26 25.544 554.98 23.496 553.273 21.704C551.652 19.8267 549.689 18.376 547.385 17.352C545.081 16.2427 542.521 15.688 539.705 15.688H486.841C483.94 15.688 481.294 16.1573 478.905 17.096C476.516 18.0347 474.425 19.4 472.633 21.192C470.841 22.8987 469.433 24.9467 468.409 27.336C467.47 29.64 467.001 32.2 467.001 35.016V58.952C467.001 61.512 467.428 63.944 468.281 66.248C469.22 68.552 470.542 70.6 472.249 72.392C473.956 74.184 475.961 75.592 478.265 76.616C480.654 77.5547 483.3 78.024 486.201 78.024H538.937C541.924 78.024 544.612 77.512 547.001 76.488C549.39 75.464 551.438 74.056 553.145 72.264C554.937 70.472 556.26 68.424 557.113 66.12C558.052 63.816 558.521 61.3413 558.521 58.696ZM704.708 93H686.404L668.1 66.376H599.876V93H584.9V0.839996H677.572C681.583 0.839996 685.295 1.56533 688.708 3.016C692.207 4.46666 695.236 6.38666 697.796 8.77599C700.441 11.1653 702.489 13.9387 703.94 17.096C705.476 20.168 706.244 23.3253 706.244 26.568V40.008C706.244 42.7387 705.647 45.512 704.452 48.328C703.343 51.144 701.807 53.7467 699.844 56.136C697.967 58.5253 695.748 60.5733 693.188 62.28C690.713 63.9013 688.153 64.968 685.508 65.48L704.708 93ZM691.396 36.168V30.28C691.396 28.3173 690.969 26.4827 690.116 24.776C689.263 22.984 688.025 21.448 686.404 20.168C684.868 18.8027 683.033 17.736 680.9 16.968C678.852 16.1147 676.548 15.688 673.988 15.688H599.876V51.4H673.988C677.145 51.4 679.791 50.9307 681.924 49.992C684.143 49.0533 685.935 47.8587 687.3 46.408C688.751 44.9573 689.775 43.336 690.372 41.544C691.055 39.6667 691.396 37.8747 691.396 36.168ZM810.447 93H717.775V0.839996H810.447C814.458 0.839996 818.17 1.608 821.583 3.144C825.082 4.59466 828.111 6.64266 830.671 9.28799C833.316 11.848 835.364 14.8773 836.815 18.376C838.351 21.7893 839.119 25.5013 839.119 29.512V64.328C839.119 68.2533 838.351 71.9653 836.815 75.464C835.364 78.9627 833.316 82.0347 830.671 84.68C828.111 87.24 825.082 89.288 821.583 90.824C818.17 92.2747 814.458 93 810.447 93ZM824.271 59.08V35.272C824.271 32.3707 823.759 29.7253 822.735 27.336C821.796 24.9467 820.431 22.8987 818.639 21.192C816.932 19.4853 814.927 18.1627 812.623 17.224C810.319 16.2 807.802 15.688 805.071 15.688H732.751V78.024H804.815C807.546 78.024 810.063 77.5973 812.367 76.744C814.756 75.8053 816.804 74.4827 818.511 72.776C820.303 71.0693 821.711 69.064 822.735 66.76C823.759 64.456 824.271 61.896 824.271 59.08Z" fill="white"/>
<path d="M131.84 142.096H116.992C116.992 140.219 116.608 138.299 115.84 136.336C115.072 134.288 113.877 132.411 112.256 130.704C110.635 128.997 108.629 127.589 106.24 126.48C103.851 125.285 101.035 124.688 97.792 124.688H37.632C35.328 124.688 33.152 125.029 31.104 125.712C29.1413 126.309 27.392 127.248 25.856 128.528C24.32 129.723 23.0827 131.259 22.144 133.136C21.2907 134.928 20.864 137.019 20.864 139.408C20.864 142.651 22.272 145.125 25.088 146.832C27.9893 148.453 32.4693 149.264 38.528 149.264H102.784C106.88 149.264 110.677 149.733 114.176 150.672C117.675 151.525 120.747 152.933 123.392 154.896C126.037 156.773 128.085 159.248 129.536 162.32C131.072 165.392 131.84 169.061 131.84 173.328C131.84 177.253 131.072 180.965 129.536 184.464C128.085 187.963 126.037 191.035 123.392 193.68C120.832 196.24 117.803 198.288 114.304 199.824C110.891 201.275 107.179 202 103.168 202H36.224C31.7867 202 27.7333 201.061 24.064 199.184C20.48 197.221 17.3653 194.704 14.72 191.632C12.0747 188.56 10.0267 185.104 8.576 181.264C7.12533 177.424 6.4 173.584 6.4 169.744H21.376C21.376 171.451 21.7173 173.328 22.4 175.376C23.0827 177.339 24.1493 179.216 25.6 181.008C27.136 182.715 29.1413 184.165 31.616 185.36C34.0907 186.469 37.12 187.024 40.704 187.024H100.096C102.656 187.024 104.96 186.64 107.008 185.872C109.141 185.019 110.933 183.909 112.384 182.544C113.92 181.179 115.115 179.643 115.968 177.936C116.821 176.144 117.248 174.352 117.248 172.56C117.248 170.512 116.864 168.891 116.096 167.696C115.328 166.416 114.219 165.435 112.768 164.752C111.317 164.069 109.525 163.643 107.392 163.472C105.259 163.216 102.827 163.088 100.096 163.088H37.12C33.1947 163.088 29.3547 162.619 25.6 161.68C21.9307 160.741 18.6453 159.291 15.744 157.328C12.928 155.28 10.6667 152.72 8.96 149.648C7.25333 146.576 6.4 142.864 6.4 138.512C6.4 134.501 7.12533 130.789 8.576 127.376C10.112 123.877 12.16 120.848 14.72 118.288C17.3653 115.643 20.4373 113.595 23.936 112.144C27.4347 110.608 31.1467 109.84 35.072 109.84H102.016C106.453 109.84 110.507 110.821 114.176 112.784C117.845 114.661 120.96 117.136 123.52 120.208C126.165 123.28 128.213 126.736 129.664 130.576C131.115 134.416 131.84 138.256 131.84 142.096ZM151.08 202V109.84H266.92V124.688H166.056V148.496H263.848V163.344H166.056V187.024H266.92V202H151.08ZM405.943 202H387.639L369.335 175.376H301.111V202H286.135V109.84H378.807C382.818 109.84 386.53 110.565 389.943 112.016C393.442 113.467 396.471 115.387 399.031 117.776C401.676 120.165 403.724 122.939 405.175 126.096C406.711 129.168 407.479 132.325 407.479 135.568V149.008C407.479 151.739 406.882 154.512 405.687 157.328C404.578 160.144 403.042 162.747 401.079 165.136C399.202 167.525 396.983 169.573 394.423 171.28C391.948 172.901 389.388 173.968 386.743 174.48L405.943 202ZM392.631 145.168V139.28C392.631 137.317 392.204 135.483 391.351 133.776C390.498 131.984 389.26 130.448 387.639 129.168C386.103 127.803 384.268 126.736 382.135 125.968C380.087 125.115 377.783 124.688 375.223 124.688H301.111V160.4H375.223C378.38 160.4 381.026 159.931 383.159 158.992C385.378 158.053 387.17 156.859 388.535 155.408C389.986 153.957 391.01 152.336 391.607 150.544C392.29 148.667 392.631 146.875 392.631 145.168ZM489.686 188.816H492.374L550.742 109.84H568.15L501.718 202H480.342L413.91 109.84H431.446L489.686 188.816ZM583.495 202V109.84H699.335V124.688H598.471V148.496H696.263V163.344H598.471V187.024H699.335V202H583.495ZM838.358 202H820.054L801.75 175.376H733.526V202H718.55V109.84H811.222C815.233 109.84 818.945 110.565 822.358 112.016C825.857 113.467 828.886 115.387 831.446 117.776C834.091 120.165 836.139 122.939 837.59 126.096C839.126 129.168 839.894 132.325 839.894 135.568V149.008C839.894 151.739 839.297 154.512 838.102 157.328C836.993 160.144 835.457 162.747 833.494 165.136C831.617 167.525 829.398 169.573 826.838 171.28C824.363 172.901 821.803 173.968 819.158 174.48L838.358 202ZM825.046 145.168V139.28C825.046 137.317 824.619 135.483 823.766 133.776C822.913 131.984 821.675 130.448 820.054 129.168C818.518 127.803 816.683 126.736 814.55 125.968C812.502 125.115 810.198 124.688 807.638 124.688H733.526V160.4H807.638C810.795 160.4 813.441 159.931 815.574 158.992C817.793 158.053 819.585 156.859 820.95 155.408C822.401 153.957 823.425 152.336 824.022 150.544C824.705 148.667 825.046 146.875 825.046 145.168Z" fill="white"/>
</svg>
