<svg xmlns="http://www.w3.org/2000/svg" width="1193" height="93" fill="none" xmlns:v="https://vecta.io/nano"><path d="M93.385 93H.713V.84h92.672c4.011 0 7.722.768 11.136 2.304 3.498 1.451 6.528 3.499 9.088 6.144 2.645 2.56 4.693 5.589 6.144 9.088 1.536 3.413 2.304 7.125 2.304 11.136v34.816c0 3.925-.768 7.637-2.304 11.136-1.451 3.499-3.499 6.571-6.144 9.216-2.56 2.56-5.59 4.608-9.088 6.144C101.107 92.275 97.395 93 93.385 93zm7.552-36.096V37.192c0-2.219-.384-4.224-1.153-6.016-.768-1.877-1.835-3.499-3.2-4.864-1.365-1.451-2.987-2.517-4.864-3.2-1.792-.768-3.755-1.152-5.888-1.152h-64v49.92h64c2.048 0 3.968-.341 5.76-1.024 1.877-.768 3.499-1.835 4.864-3.2 1.451-1.365 2.56-2.944 3.328-4.736.769-1.877 1.153-3.883 1.153-6.016zM226.388 93h-64.256c-3.926 0-7.638-.725-11.136-2.176-3.414-1.536-6.443-3.584-9.088-6.144-2.56-2.645-4.608-5.675-6.144-9.088-1.451-3.499-2.176-7.211-2.176-11.136V29.384c0-3.925.725-7.595 2.176-11.008 1.536-3.499 3.584-6.528 6.144-9.088 2.645-2.645 5.674-4.693 9.088-6.144 3.498-1.536 7.21-2.304 11.136-2.304h64.256c3.925 0 7.594.768 11.008 2.304 3.498 1.451 6.528 3.499 9.088 6.144 2.645 2.56 4.693 5.589 6.144 9.088 1.536 3.413 2.304 7.083 2.304 11.008v35.072c0 3.925-.768 7.637-2.304 11.136-1.451 3.413-3.499 6.443-6.144 9.088-2.56 2.56-5.59 4.608-9.088 6.144-3.414 1.451-7.083 2.176-11.008 2.176zm7.424-36.224V37.192c0-2.048-.384-3.968-1.152-5.76-.683-1.877-1.707-3.499-3.072-4.864-1.28-1.451-2.859-2.56-4.736-3.328-1.792-.853-3.755-1.28-5.888-1.28h-48.896c-2.134 0-4.139.384-6.016 1.152-1.878.683-3.542 1.707-4.992 3.072-1.366 1.365-2.432 2.987-3.2 4.864-.768 1.792-1.152 3.797-1.152 6.016v19.84c0 2.048.341 3.968 1.024 5.76.768 1.792 1.834 3.413 3.2 4.864 1.365 1.365 2.944 2.432 4.736 3.2 1.877.768 3.925 1.152 6.144 1.152h48.768c2.304 0 4.352-.384 6.144-1.152 1.877-.768 3.498-1.835 4.864-3.2 1.365-1.451 2.389-3.072 3.072-4.864.768-1.877 1.152-3.84 1.152-5.888zm130.571 11.52V.84h21.12V93h-26.496l-71.424-67.328V93h-21.12V.84h26.624l71.296 67.456zm158.145-32.64h-21.12c0-1.792-.342-3.499-1.024-5.12-.598-1.707-1.536-3.157-2.816-4.352-1.195-1.28-2.688-2.304-4.48-3.072-1.707-.768-3.712-1.152-6.016-1.152h-53.504c-2.219 0-4.267.384-6.144 1.152-1.792.683-3.414 1.707-4.864 3.072-1.366 1.365-2.432 3.029-3.2 4.992-.768 1.877-1.152 3.968-1.152 6.272v19.328c0 2.219.384 4.267 1.152 6.144.768 1.792 1.834 3.371 3.2 4.736 1.45 1.365 3.114 2.432 4.992 3.2 1.877.683 3.882 1.024 6.016 1.024h53.504c1.792 0 3.541-.341 5.248-1.024a16.75 16.75 0 0 0 4.608-3.072c1.365-1.28 2.432-2.773 3.2-4.48.853-1.792 1.28-3.712 1.28-5.76h21.12v2.56c0 4.011-.726 7.979-2.176 11.904s-3.499 7.467-6.144 10.624c-2.56 3.072-5.675 5.589-9.344 7.552-3.67 1.877-7.723 2.816-12.16 2.816H425.76c-3.926 0-7.638-.725-11.136-2.176-3.499-1.536-6.571-3.584-9.216-6.144-2.56-2.645-4.608-5.717-6.144-9.216-1.451-3.499-2.176-7.211-2.176-11.136V29.512c0-4.011.725-7.723 2.176-11.136 1.536-3.499 3.584-6.528 6.144-9.088 2.645-2.645 5.717-4.693 9.216-6.144C418.122 1.608 421.834.84 425.76.84h66.944c4.437 0 8.49.981 12.16 2.944 3.669 1.877 6.784 4.352 9.344 7.424a34.39 34.39 0 0 1 6.144 10.368c1.45 3.84 2.176 7.68 2.176 11.52v2.56zM534.088 93V.84h115.84v21.12h-94.72v14.464h91.648v20.992h-91.648V71.88h94.72V93h-115.84zM661.463.84h123.264v20.736l-83.2 50.304h83.2V93H661.463V72.136l83.072-50.176h-83.072V.84zM932.209 93h-24.32l-11.136-17.28h-69.76L816.113 93h-24.32L848.369.84h27.136L932.209 93zm-71.552-71.04L839.409 54.6h45.312l-21.376-32.64h-2.688zM1059.02 93h-25.73l-18.3-26.624h-54.657V93h-21.12V.84h92.667c4.02 0 7.73.725 11.14 2.176 3.5 1.451 6.53 3.371 9.09 5.76 2.64 2.389 4.69 5.163 6.14 8.32 1.54 3.072 2.31 6.229 2.31 9.472v13.44c0 2.731-.6 5.504-1.8 8.32-1.1 2.816-2.64 5.419-4.6 7.808-1.88 2.389-4.1 4.437-6.66 6.144-2.47 1.621-5.03 2.688-7.68 3.2l19.2 27.52zm-19.58-58.112v-3.072c0-1.365-.3-2.645-.9-3.84-.51-1.195-1.32-2.219-2.43-3.072-1.03-.939-2.31-1.664-3.84-2.176-1.45-.512-3.12-.768-4.99-.768h-66.947v23.296h66.947c2.13 0 3.96-.299 5.5-.896s2.77-1.365 3.71-2.304c1.03-1.024 1.75-2.133 2.18-3.328.51-1.28.77-2.56.77-3.84zM1192.34.84v21.12h-51.2V93h-21.12V21.96h-50.56V.84h122.88z" fill="#fff"/></svg>